<?xml version="1.0" encoding="UTF-8"?>
<svg width="1200" height="630" viewBox="0 0 1200 630" xmlns="http://www.w3.org/2000/svg">
  <!-- Background -->
  <rect width="1200" height="630" fill="#1a1a2e"/>
  
  <!-- Gradient overlay -->
  <defs>
    <linearGradient id="grad1" x1="0%" y1="0%" x2="100%" y2="100%">
      <stop offset="0%" style="stop-color:#16213e;stop-opacity:0.8" />
      <stop offset="100%" style="stop-color:#1a1a2e;stop-opacity:1" />
    </linearGradient>
  </defs>
  <rect width="1200" height="630" fill="url(#grad1)"/>
  
  <!-- Decorative elements -->
  <rect x="950" y="100" width="20" height="20" fill="#4a9eff" opacity="0.8"/>
  <rect x="980" y="120" width="20" height="20" fill="#4a9eff" opacity="0.6"/>
  <rect x="1010" y="140" width="20" height="20" fill="#4a9eff" opacity="0.4"/>
  
  <!-- Bottom decoration lines -->
  <rect x="900" y="480" width="250" height="3" fill="#4a9eff" opacity="0.8"/>
  <rect x="900" y="495" width="250" height="3" fill="#4a9ecc" opacity="0.6"/>
  <rect x="900" y="510" width="250" height="3" fill="#4a9eff" opacity="0.4"/>
  <rect x="900" y="525" width="250" height="3" fill="#4a9ecc" opacity="0.3"/>
  <rect x="900" y="540" width="250" height="3" fill="#4a9eff" opacity="0.2"/>
  
  <!-- Main title -->
  <text x="50" y="230" font-family="Arial, sans-serif" font-size="72" font-weight="bold" fill="white">
    日本のテックニュース速報
  </text>
  
  <!-- Subtitle -->
  <text x="50" y="300" font-family="Arial, sans-serif" font-size="36" fill="#e8e8e8">
    2時間ごとに更新される最新IT情報
  </text>
  
  <!-- Description -->
  <text x="50" y="360" font-family="Arial, sans-serif" font-size="28" fill="#b8b8b8">
    AI・機械学習 | Apple製品 | プログラミング
  </text>
  
  <!-- Tech icon elements -->
  <circle cx="1050" cy="300" r="30" fill="none" stroke="#4a9eff" stroke-width="2" opacity="0.3"/>
  <circle cx="1050" cy="300" r="15" fill="#4a9eff" opacity="0.5"/>
  
  <rect x="1000" y="380" width="40" height="40" rx="5" fill="none" stroke="#4a9eff" stroke-width="2" opacity="0.4"/>
  <rect x="1010" y="390" width="20" height="20" fill="#4a9eff" opacity="0.6"/>
</svg>